<svg width="76" height="76" viewBox="0 0 76 76" fill="none" xmlns="http://www.w3.org/2000/svg">
<g filter="url(#filter0_i_5132_5069)">
<path fill-rule="evenodd" clip-rule="evenodd" d="M32 22C23.1634 22 16 29.1634 16 38L16.0034 38.3313C16.1672 46.3732 22.2826 53.0157 30.2043 53.9002L30.468 53.927L30.5604 53.9515C30.7019 53.9833 30.849 54 31 54H49L49.2943 53.996C55.262 53.8234 60 48.9545 60 43C60 36.9249 55.0751 32 49 32L48.5683 32.0083C48.1378 32.025 47.7111 32.0666 47.2899 32.1325L46.915 32.198L46.8113 31.9358C44.3965 26.033 38.6037 22 32 22Z" fill="url(#paint0_linear_5132_5069)"/>
</g>
<defs>
<filter id="filter0_i_5132_5069" x="14" y="22" width="46" height="36" filterUnits="userSpaceOnUse" color-interpolation-filters="sRGB">
<feFlood flood-opacity="0" result="BackgroundImageFix"/>
<feBlend mode="normal" in="SourceGraphic" in2="BackgroundImageFix" result="shape"/>
<feColorMatrix in="SourceAlpha" type="matrix" values="0 0 0 0 0 0 0 0 0 0 0 0 0 0 0 0 0 0 127 0" result="hardAlpha"/>
<feOffset dx="-2" dy="4"/>
<feGaussianBlur stdDeviation="2"/>
<feComposite in2="hardAlpha" operator="arithmetic" k2="-1" k3="1"/>
<feColorMatrix type="matrix" values="0 0 0 0 1 0 0 0 0 1 0 0 0 0 1 0 0 0 1 0"/>
<feBlend mode="normal" in2="shape" result="effect1_innerShadow_5132_5069"/>
</filter>
<linearGradient id="paint0_linear_5132_5069" x1="19.0824" y1="22" x2="60.4873" y2="53.3565" gradientUnits="userSpaceOnUse">
<stop stop-color="white"/>
<stop offset="1" stop-color="#B4E6FB"/>
</linearGradient>
</defs>
</svg>
