<svg width="76" height="76" viewBox="0 0 76 76" fill="none" xmlns="http://www.w3.org/2000/svg">
<g filter="url(#filter0_i_5132_5061)">
<path fill-rule="evenodd" clip-rule="evenodd" d="M38.4184 16.0396C40.2223 15.6752 41.5193 17.7349 40.4112 19.2043C38.9222 21.1785 38.1053 23.5765 38.1053 26.1039C38.1053 32.4406 43.2422 37.5776 49.5789 37.5776C52.106 37.5776 54.504 36.7608 56.4781 35.2726C57.9474 34.1649 60.0067 35.4619 59.6424 37.2656C57.9592 45.5995 50.6055 51.6829 42 51.6829C32.0589 51.6829 24 43.624 24 33.6829C24 25.0771 30.0835 17.7235 38.4184 16.0396Z" fill="url(#paint0_linear_5132_5061)"/>
</g>
<g filter="url(#filter1_i_5132_5061)">
<path fill-rule="evenodd" clip-rule="evenodd" d="M27.7 38C31.4459 38 34.7613 40.1403 36.3717 43.3475L36.458 43.526L36.7094 43.5082L37.05 43.5C40.8884 43.5 44 46.6116 44 50.45C44 54.2884 40.8884 57.4 37.05 57.4H27.15C26.9996 57.4 26.853 57.3834 26.712 57.3519L26.698 57.347L26.4713 57.3228C21.7598 56.7272 18.1363 52.768 18.0038 47.9723L18 47.7C18 42.3428 22.3428 38 27.7 38Z" fill="url(#paint1_linear_5132_5061)"/>
</g>
<defs>
<filter id="filter0_i_5132_5061" x="24" y="15.9971" width="35.6848" height="37.6857" filterUnits="userSpaceOnUse" color-interpolation-filters="sRGB">
<feFlood flood-opacity="0" result="BackgroundImageFix"/>
<feBlend mode="normal" in="SourceGraphic" in2="BackgroundImageFix" result="shape"/>
<feColorMatrix in="SourceAlpha" type="matrix" values="0 0 0 0 0 0 0 0 0 0 0 0 0 0 0 0 0 0 127 0" result="hardAlpha"/>
<feOffset dy="2"/>
<feGaussianBlur stdDeviation="8"/>
<feComposite in2="hardAlpha" operator="arithmetic" k2="-1" k3="1"/>
<feColorMatrix type="matrix" values="0 0 0 0 1 0 0 0 0 1 0 0 0 0 1 0 0 0 1 0"/>
<feBlend mode="overlay" in2="shape" result="effect1_innerShadow_5132_5061"/>
</filter>
<filter id="filter1_i_5132_5061" x="16" y="38" width="28" height="23.4" filterUnits="userSpaceOnUse" color-interpolation-filters="sRGB">
<feFlood flood-opacity="0" result="BackgroundImageFix"/>
<feBlend mode="normal" in="SourceGraphic" in2="BackgroundImageFix" result="shape"/>
<feColorMatrix in="SourceAlpha" type="matrix" values="0 0 0 0 0 0 0 0 0 0 0 0 0 0 0 0 0 0 127 0" result="hardAlpha"/>
<feOffset dx="-2" dy="4"/>
<feGaussianBlur stdDeviation="2"/>
<feComposite in2="hardAlpha" operator="arithmetic" k2="-1" k3="1"/>
<feColorMatrix type="matrix" values="0 0 0 0 1 0 0 0 0 1 0 0 0 0 1 0 0 0 1 0"/>
<feBlend mode="normal" in2="shape" result="effect1_innerShadow_5132_5061"/>
</filter>
<linearGradient id="paint0_linear_5132_5061" x1="41.8424" y1="15.9971" x2="41.8424" y2="51.6829" gradientUnits="userSpaceOnUse">
<stop stop-color="#FFD358"/>
<stop offset="1" stop-color="#FA6C21"/>
</linearGradient>
<linearGradient id="paint1_linear_5132_5061" x1="19.8214" y1="38" x2="44.7418" y2="56.395" gradientUnits="userSpaceOnUse">
<stop stop-color="white"/>
<stop offset="1" stop-color="#B4E6FB"/>
</linearGradient>
</defs>
</svg>
