<svg width="76" height="76" viewBox="0 0 76 76" fill="none" xmlns="http://www.w3.org/2000/svg">
<g filter="url(#filter0_i_5132_5052)">
<path fill-rule="evenodd" clip-rule="evenodd" d="M45.6118 16.2381C47.4153 15.8735 48.7127 17.9324 47.6053 19.402C46.7724 20.5074 46.3158 21.8481 46.3158 23.2632C46.3158 26.8094 49.1906 29.6842 52.7368 29.6842C54.1518 29.6842 55.4921 29.2277 56.5969 28.395C58.0663 27.2875 60.1254 28.5844 59.7611 30.3881C58.6389 35.9449 53.737 40 48 40C41.3726 40 36 34.6274 36 28C36 22.2632 40.0548 17.3613 45.6118 16.2381Z" fill="url(#paint0_linear_5132_5052)"/>
</g>
<g filter="url(#filter1_i_5132_5052)">
<path fill-rule="evenodd" clip-rule="evenodd" d="M32 25C38.4857 25 44.1894 28.8902 46.6787 34.6214L46.8113 34.9358L46.915 35.198L47.2899 35.1325C47.5707 35.0886 47.8539 35.0554 48.1391 35.0333L48.5683 35.0083L49 35C55.0751 35 60 39.9249 60 46C60 51.8569 55.4161 56.6634 49.5868 56.9837L49.2943 56.996L49 57H31C30.8993 57 30.8004 56.9926 30.7037 56.9782L30.5604 56.9515L30.468 56.927L30.2043 56.9002C22.3942 56.0282 16.3398 49.5591 16.0138 41.6702L16.0034 41.3313L16 41C16 32.1634 23.1634 25 32 25Z" fill="url(#paint1_linear_5132_5052)"/>
</g>
<defs>
<filter id="filter0_i_5132_5052" x="36" y="16.1955" width="23.8035" height="25.8045" filterUnits="userSpaceOnUse" color-interpolation-filters="sRGB">
<feFlood flood-opacity="0" result="BackgroundImageFix"/>
<feBlend mode="normal" in="SourceGraphic" in2="BackgroundImageFix" result="shape"/>
<feColorMatrix in="SourceAlpha" type="matrix" values="0 0 0 0 0 0 0 0 0 0 0 0 0 0 0 0 0 0 127 0" result="hardAlpha"/>
<feOffset dy="2"/>
<feGaussianBlur stdDeviation="8"/>
<feComposite in2="hardAlpha" operator="arithmetic" k2="-1" k3="1"/>
<feColorMatrix type="matrix" values="0 0 0 0 1 0 0 0 0 1 0 0 0 0 1 0 0 0 1 0"/>
<feBlend mode="overlay" in2="shape" result="effect1_innerShadow_5132_5052"/>
</filter>
<filter id="filter1_i_5132_5052" x="14" y="25" width="46" height="36" filterUnits="userSpaceOnUse" color-interpolation-filters="sRGB">
<feFlood flood-opacity="0" result="BackgroundImageFix"/>
<feBlend mode="normal" in="SourceGraphic" in2="BackgroundImageFix" result="shape"/>
<feColorMatrix in="SourceAlpha" type="matrix" values="0 0 0 0 0 0 0 0 0 0 0 0 0 0 0 0 0 0 127 0" result="hardAlpha"/>
<feOffset dx="-2" dy="4"/>
<feGaussianBlur stdDeviation="2"/>
<feComposite in2="hardAlpha" operator="arithmetic" k2="-1" k3="1"/>
<feColorMatrix type="matrix" values="0 0 0 0 1 0 0 0 0 1 0 0 0 0 1 0 0 0 1 0"/>
<feBlend mode="normal" in2="shape" result="effect1_innerShadow_5132_5052"/>
</filter>
<linearGradient id="paint0_linear_5132_5052" x1="47.9018" y1="16.1955" x2="47.9018" y2="40" gradientUnits="userSpaceOnUse">
<stop stop-color="#FFD358"/>
<stop offset="1" stop-color="#FA6C21"/>
</linearGradient>
<linearGradient id="paint1_linear_5132_5052" x1="19.0824" y1="25" x2="60.4873" y2="56.3565" gradientUnits="userSpaceOnUse">
<stop stop-color="white"/>
<stop offset="1" stop-color="#B4E6FB"/>
</linearGradient>
</defs>
</svg>
