<svg width="76" height="76" viewBox="0 0 76 76" fill="none" xmlns="http://www.w3.org/2000/svg">
<g filter="url(#filter0_i_5132_5033)">
<path fill-rule="evenodd" clip-rule="evenodd" d="M47 23C51.9706 23 56 27.0294 56 32C56 36.9706 51.9706 41 47 41C42.0294 41 38 36.9706 38 32C38 27.0294 42.0294 23 47 23ZM58.8177 32.0838C59.9223 32.0838 60.8177 32.9792 60.8177 34.0838C60.8177 35.1884 59.9223 36.0838 58.8177 36.0838C57.7131 36.0838 56.8177 35.1884 56.8177 34.0838C56.8177 32.9792 57.7131 32.0838 58.8177 32.0838ZM56.8298 23.1171C57.9344 23.1171 58.8298 24.0125 58.8298 25.1171C58.8298 26.2217 57.9344 27.1171 56.8298 27.1171C55.7253 27.1171 54.8298 26.2217 54.8298 25.1171C54.8298 24.0125 55.7253 23.1171 56.8298 23.1171ZM40.1171 20.1702C41.2217 20.1702 42.1171 21.0656 42.1171 22.1702C42.1171 23.2748 41.2217 24.1702 40.1171 24.1702C39.0125 24.1702 38.1171 23.2748 38.1171 22.1702C38.1171 21.0656 39.0125 20.1702 40.1171 20.1702ZM49.0838 18.1823C50.1883 18.1823 51.0838 19.0777 51.0838 20.1823C51.0838 21.2869 50.1883 22.1823 49.0838 22.1823C47.9792 22.1823 47.0838 21.2869 47.0838 20.1823C47.0838 19.0777 47.9792 18.1823 49.0838 18.1823Z" fill="url(#paint0_linear_5132_5033)"/>
</g>
<g filter="url(#filter1_i_5132_5033)">
<path fill-rule="evenodd" clip-rule="evenodd" d="M32 25C38.4857 25 44.1894 28.8902 46.6787 34.6214L46.8113 34.9358L46.915 35.198L47.2899 35.1325C47.5707 35.0886 47.8539 35.0554 48.1391 35.0333L48.5683 35.0083L49 35C55.0751 35 60 39.9249 60 46C60 51.8569 55.4161 56.6634 49.5868 56.9837L49.2943 56.996L49 57H31C30.8993 57 30.8004 56.9926 30.7037 56.9782L30.5604 56.9515L30.468 56.927L30.2043 56.9002C22.3942 56.0282 16.3398 49.5591 16.0138 41.6702L16.0034 41.3313L16 41C16 32.1634 23.1634 25 32 25Z" fill="url(#paint1_linear_5132_5033)"/>
</g>
<defs>
<filter id="filter0_i_5132_5033" x="38" y="18.1823" width="22.8176" height="24.8177" filterUnits="userSpaceOnUse" color-interpolation-filters="sRGB">
<feFlood flood-opacity="0" result="BackgroundImageFix"/>
<feBlend mode="normal" in="SourceGraphic" in2="BackgroundImageFix" result="shape"/>
<feColorMatrix in="SourceAlpha" type="matrix" values="0 0 0 0 0 0 0 0 0 0 0 0 0 0 0 0 0 0 127 0" result="hardAlpha"/>
<feOffset dy="2"/>
<feGaussianBlur stdDeviation="4"/>
<feComposite in2="hardAlpha" operator="arithmetic" k2="-1" k3="1"/>
<feColorMatrix type="matrix" values="0 0 0 0 1 0 0 0 0 1 0 0 0 0 1 0 0 0 1 0"/>
<feBlend mode="overlay" in2="shape" result="effect1_innerShadow_5132_5033"/>
</filter>
<filter id="filter1_i_5132_5033" x="14" y="25" width="46" height="36" filterUnits="userSpaceOnUse" color-interpolation-filters="sRGB">
<feFlood flood-opacity="0" result="BackgroundImageFix"/>
<feBlend mode="normal" in="SourceGraphic" in2="BackgroundImageFix" result="shape"/>
<feColorMatrix in="SourceAlpha" type="matrix" values="0 0 0 0 0 0 0 0 0 0 0 0 0 0 0 0 0 0 127 0" result="hardAlpha"/>
<feOffset dx="-2" dy="4"/>
<feGaussianBlur stdDeviation="2"/>
<feComposite in2="hardAlpha" operator="arithmetic" k2="-1" k3="1"/>
<feColorMatrix type="matrix" values="0 0 0 0 1 0 0 0 0 1 0 0 0 0 1 0 0 0 1 0"/>
<feBlend mode="normal" in2="shape" result="effect1_innerShadow_5132_5033"/>
</filter>
<linearGradient id="paint0_linear_5132_5033" x1="49.4088" y1="18.1823" x2="49.4088" y2="41" gradientUnits="userSpaceOnUse">
<stop stop-color="#FFD358"/>
<stop offset="1" stop-color="#FA6C21"/>
</linearGradient>
<linearGradient id="paint1_linear_5132_5033" x1="19.0824" y1="25" x2="60.4873" y2="56.3565" gradientUnits="userSpaceOnUse">
<stop stop-color="white"/>
<stop offset="1" stop-color="#B4E6FB"/>
</linearGradient>
</defs>
</svg>
