<svg width="76" height="76" viewBox="0 0 76 76" fill="none" xmlns="http://www.w3.org/2000/svg">
<g filter="url(#filter0_i_5132_5084)">
<path fill-rule="evenodd" clip-rule="evenodd" d="M32 22C23.1634 22 16 29.1634 16 38L16.0034 38.3313C16.1672 46.3732 22.2826 53.0157 30.2043 53.9002L30.468 53.927L30.5604 53.9515C30.7019 53.9833 30.849 54 31 54H49L49.2943 53.996C55.262 53.8234 60 48.9545 60 43C60 36.9249 55.0751 32 49 32L48.5683 32.0083C48.1378 32.025 47.7111 32.0666 47.2899 32.1325L46.915 32.198L46.8113 31.9358C44.3965 26.033 38.6037 22 32 22Z" fill="url(#paint0_linear_5132_5084)"/>
</g>
<path fill-rule="evenodd" clip-rule="evenodd" d="M52 38C56.4183 38 60 41.5817 60 46C60 50.4183 56.4183 54 52 54H22C20.8954 54 20 53.1046 20 52C20 50.8954 20.8954 50 22 50H52C54.2092 50 56 48.2092 56 46C56 43.7909 54.2091 42 52 42C50.643 42 49.4043 42.6788 48.6658 43.789C48.0541 44.7088 46.8126 44.9584 45.8929 44.3467C44.9732 43.735 44.7235 42.4936 45.3352 41.5738C46.8075 39.3602 49.2898 38 52 38ZM58 58C59.1046 58 60 58.8954 60 60C60 61.1046 59.1046 62 58 62H22C20.8954 62 20 61.1046 20 60C20 58.8954 20.8954 58 22 58H58Z" fill="url(#paint1_linear_5132_5084)"/>
<defs>
<filter id="filter0_i_5132_5084" x="14" y="22" width="46" height="36" filterUnits="userSpaceOnUse" color-interpolation-filters="sRGB">
<feFlood flood-opacity="0" result="BackgroundImageFix"/>
<feBlend mode="normal" in="SourceGraphic" in2="BackgroundImageFix" result="shape"/>
<feColorMatrix in="SourceAlpha" type="matrix" values="0 0 0 0 0 0 0 0 0 0 0 0 0 0 0 0 0 0 127 0" result="hardAlpha"/>
<feOffset dx="-2" dy="4"/>
<feGaussianBlur stdDeviation="2"/>
<feComposite in2="hardAlpha" operator="arithmetic" k2="-1" k3="1"/>
<feColorMatrix type="matrix" values="0 0 0 0 1 0 0 0 0 1 0 0 0 0 1 0 0 0 1 0"/>
<feBlend mode="normal" in2="shape" result="effect1_innerShadow_5132_5084"/>
</filter>
<linearGradient id="paint0_linear_5132_5084" x1="19.0824" y1="22" x2="60.4873" y2="53.3565" gradientUnits="userSpaceOnUse">
<stop stop-color="white"/>
<stop offset="1" stop-color="#B4E6FB"/>
</linearGradient>
<linearGradient id="paint1_linear_5132_5084" x1="20" y1="38" x2="20" y2="62" gradientUnits="userSpaceOnUse">
<stop stop-color="#4CAFFF"/>
<stop offset="1" stop-color="#8FD5FF"/>
</linearGradient>
</defs>
</svg>
