<svg width="76" height="76" viewBox="0 0 76 76" fill="none" xmlns="http://www.w3.org/2000/svg">
<g filter="url(#filter0_i_5132_5044)">
<path fill-rule="evenodd" clip-rule="evenodd" d="M32 18C23.1634 18 16 25.1634 16 34L16.0034 34.3313C16.1672 42.3732 22.2826 49.0157 30.2043 49.9002L30.468 49.927L30.5604 49.9515C30.7019 49.9833 30.849 50 31 50H49L49.2943 49.996C55.262 49.8234 60 44.9545 60 39C60 32.9249 55.0751 28 49 28L48.5683 28.0083C48.1378 28.025 47.7111 28.0666 47.2899 28.1325L46.915 28.198L46.8113 27.9358C44.3965 22.033 38.6037 18 32 18Z" fill="url(#paint0_linear_5132_5044)"/>
</g>
<path fill-rule="evenodd" clip-rule="evenodd" d="M20.1431 50.2572C20.5533 49.2316 21.7173 48.7328 22.7428 49.143C23.7684 49.5533 24.2672 50.7172 23.857 51.7428L21.857 56.7428C21.4468 57.7683 20.2828 58.2672 19.2573 57.857C18.2317 57.4467 17.7329 56.2828 18.1431 55.2572L20.1431 50.2572ZM40.1431 45.2572C40.5533 44.2317 41.7173 43.7328 42.7428 44.143C43.7684 44.5533 44.2672 45.7172 43.857 46.7428L39.857 56.7428C39.4468 57.7683 38.2828 58.2672 37.2573 57.857C36.2317 57.4467 35.7329 56.2828 36.1431 55.2572L40.1431 45.2572ZM31.1431 45.2572C31.5533 44.2317 32.7173 43.7328 33.7428 44.143C34.7684 44.5533 35.2672 45.7172 34.857 46.7428L30.857 56.7428C30.4468 57.7683 29.2828 58.2672 28.2573 57.857C27.2317 57.4467 26.7329 56.2828 27.1431 55.2572L31.1431 45.2572ZM49.1431 45.2572C49.5533 44.2317 50.7173 43.7328 51.7428 44.143C52.7684 44.5533 53.2672 45.7172 52.857 46.7428L48.857 56.7428C48.4468 57.7683 47.2828 58.2672 46.2573 57.857C45.2317 57.4467 44.7329 56.2828 45.1431 55.2572L49.1431 45.2572ZM56.1431 50.2572C56.5533 49.2316 57.7173 48.7328 58.7428 49.143C59.7684 49.5533 60.2672 50.7172 59.857 51.7428L57.857 56.7428C57.4468 57.7683 56.2828 58.2672 55.2573 57.857C54.2317 57.4467 53.7329 56.2828 54.1431 55.2572L56.1431 50.2572Z" fill="url(#paint1_linear_5132_5044)"/>
<defs>
<filter id="filter0_i_5132_5044" x="14" y="18" width="46" height="36" filterUnits="userSpaceOnUse" color-interpolation-filters="sRGB">
<feFlood flood-opacity="0" result="BackgroundImageFix"/>
<feBlend mode="normal" in="SourceGraphic" in2="BackgroundImageFix" result="shape"/>
<feColorMatrix in="SourceAlpha" type="matrix" values="0 0 0 0 0 0 0 0 0 0 0 0 0 0 0 0 0 0 127 0" result="hardAlpha"/>
<feOffset dx="-2" dy="4"/>
<feGaussianBlur stdDeviation="2"/>
<feComposite in2="hardAlpha" operator="arithmetic" k2="-1" k3="1"/>
<feColorMatrix type="matrix" values="0 0 0 0 1 0 0 0 0 1 0 0 0 0 1 0 0 0 1 0"/>
<feBlend mode="normal" in2="shape" result="effect1_innerShadow_5132_5044"/>
</filter>
<linearGradient id="paint0_linear_5132_5044" x1="19.0824" y1="18" x2="60.4873" y2="49.3565" gradientUnits="userSpaceOnUse">
<stop stop-color="white"/>
<stop offset="1" stop-color="#B4E6FB"/>
</linearGradient>
<linearGradient id="paint1_linear_5132_5044" x1="17.9995" y1="43.9995" x2="17.9995" y2="58.0005" gradientUnits="userSpaceOnUse">
<stop stop-color="#4CAFFF"/>
<stop offset="1" stop-color="#8FD5FF"/>
</linearGradient>
</defs>
</svg>
