<svg width="76" height="76" viewBox="0 0 76 76" fill="none" xmlns="http://www.w3.org/2000/svg">
<g filter="url(#filter0_i_5132_5065)">
<path fill-rule="evenodd" clip-rule="evenodd" d="M33.8201 17.4164C35.6239 17.0519 36.9211 19.1113 35.8133 20.5807C33.9969 22.9901 33 25.9168 33 29C33 36.732 39.268 43 47 43C50.0832 43 53.01 42.003 55.4189 40.187C56.8883 39.0792 58.9477 40.3763 58.5833 42.18C56.6189 51.9029 48.0396 59 38 59C26.402 59 17 49.598 17 38C17 27.9604 24.0971 19.3812 33.8201 17.4164Z" fill="url(#paint0_linear_5132_5065)"/>
</g>
<defs>
<filter id="filter0_i_5132_5065" x="17" y="17.3739" width="41.6257" height="43.6261" filterUnits="userSpaceOnUse" color-interpolation-filters="sRGB">
<feFlood flood-opacity="0" result="BackgroundImageFix"/>
<feBlend mode="normal" in="SourceGraphic" in2="BackgroundImageFix" result="shape"/>
<feColorMatrix in="SourceAlpha" type="matrix" values="0 0 0 0 0 0 0 0 0 0 0 0 0 0 0 0 0 0 127 0" result="hardAlpha"/>
<feOffset dy="2"/>
<feGaussianBlur stdDeviation="8"/>
<feComposite in2="hardAlpha" operator="arithmetic" k2="-1" k3="1"/>
<feColorMatrix type="matrix" values="0 0 0 0 1 0 0 0 0 1 0 0 0 0 1 0 0 0 1 0"/>
<feBlend mode="overlay" in2="shape" result="effect1_innerShadow_5132_5065"/>
</filter>
<linearGradient id="paint0_linear_5132_5065" x1="37.8129" y1="17.3739" x2="37.8129" y2="59" gradientUnits="userSpaceOnUse">
<stop stop-color="#FFD358"/>
<stop offset="1" stop-color="#FA6C21"/>
</linearGradient>
</defs>
</svg>
