<svg width="48" height="48" viewBox="0 0 48 48" fill="none" xmlns="http://www.w3.org/2000/svg">
<g filter="url(#filter0_i_5132_5518)">
<path fill-rule="evenodd" clip-rule="evenodd" d="M18 4C9.16344 4 2 11.1634 2 20L2.00337 20.3313C2.16721 28.3732 8.28258 35.0157 16.2043 35.9002L16.468 35.927L16.5604 35.9515C16.7019 35.9833 16.849 36 17 36H35L35.2943 35.996C41.262 35.8234 46 30.9545 46 25C46 18.9249 41.0751 14 35 14L34.5683 14.0083C34.1378 14.025 33.7111 14.0666 33.2899 14.1325L32.915 14.198L32.8113 13.9358C30.3965 8.033 24.6037 4 18 4Z" fill="url(#paint0_linear_5132_5518)"/>
</g>
<path fill-rule="evenodd" clip-rule="evenodd" d="M39 34C40.1046 34 41 34.8954 41 36C41 37.1046 40.1046 38 39 38H25C23.8954 38 23 37.1046 23 36C23 34.8954 23.8954 34 25 34H39ZM19 34C20.1046 34 21 34.8954 21 36C21 37.1046 20.1046 38 19 38H5C3.89543 38 3 37.1046 3 36C3 34.8954 3.89543 34 5 34H19ZM40 28C41.1046 28 42 28.8954 42 30C42 31.1046 41.1046 32 40 32H34C32.8954 32 32 31.1046 32 30C32 28.8954 32.8954 28 34 28H40ZM27 40C28.1046 40 29 40.8954 29 42C29 43.1046 28.1046 44 27 44H9C7.89543 44 7 43.1046 7 42C7 40.8954 7.89543 40 9 40H27ZM43 40C44.1046 40 45 40.8954 45 42C45 43.1046 44.1046 44 43 44H33C31.8954 44 31 43.1046 31 42C31 40.8954 31.8954 40 33 40H43ZM28 28C29.1046 28 30 28.8954 30 30C30 31.1046 29.1046 32 28 32H9C7.89543 32 7 31.1046 7 30C7 28.8954 7.89543 28 9 28H28Z" fill="url(#paint1_linear_5132_5518)"/>
<defs>
<filter id="filter0_i_5132_5518" x="0" y="4" width="46" height="36" filterUnits="userSpaceOnUse" color-interpolation-filters="sRGB">
<feFlood flood-opacity="0" result="BackgroundImageFix"/>
<feBlend mode="normal" in="SourceGraphic" in2="BackgroundImageFix" result="shape"/>
<feColorMatrix in="SourceAlpha" type="matrix" values="0 0 0 0 0 0 0 0 0 0 0 0 0 0 0 0 0 0 127 0" result="hardAlpha"/>
<feOffset dx="-2" dy="4"/>
<feGaussianBlur stdDeviation="2"/>
<feComposite in2="hardAlpha" operator="arithmetic" k2="-1" k3="1"/>
<feColorMatrix type="matrix" values="0 0 0 0 1 0 0 0 0 1 0 0 0 0 1 0 0 0 1 0"/>
<feBlend mode="normal" in2="shape" result="effect1_innerShadow_5132_5518"/>
</filter>
<linearGradient id="paint0_linear_5132_5518" x1="5.08244" y1="4" x2="46.4873" y2="35.3565" gradientUnits="userSpaceOnUse">
<stop stop-color="white"/>
<stop offset="1" stop-color="#B4E6FB"/>
</linearGradient>
<linearGradient id="paint1_linear_5132_5518" x1="3" y1="28" x2="3" y2="44" gradientUnits="userSpaceOnUse">
<stop stop-color="#4CAFFF"/>
<stop offset="1" stop-color="#8FD5FF"/>
</linearGradient>
</defs>
</svg>
