<svg width="76" height="76" viewBox="0 0 76 76" fill="none" xmlns="http://www.w3.org/2000/svg">
<g filter="url(#filter0_i_5132_5048)">
<path fill-rule="evenodd" clip-rule="evenodd" d="M47 21C51.9706 21 56 25.0294 56 30C56 34.9706 51.9706 39 47 39C42.0294 39 38 34.9706 38 30C38 25.0294 42.0294 21 47 21ZM58.8177 30.0838C59.9223 30.0838 60.8177 30.9792 60.8177 32.0838C60.8177 33.1884 59.9223 34.0838 58.8177 34.0838C57.7131 34.0838 56.8177 33.1884 56.8177 32.0838C56.8177 30.9792 57.7131 30.0838 58.8177 30.0838ZM56.8298 21.1171C57.9344 21.1171 58.8298 22.0125 58.8298 23.1171C58.8298 24.2217 57.9344 25.1171 56.8298 25.1171C55.7253 25.1171 54.8298 24.2217 54.8298 23.1171C54.8298 22.0125 55.7253 21.1171 56.8298 21.1171ZM40.1171 18.1702C41.2217 18.1702 42.1171 19.0656 42.1171 20.1702C42.1171 21.2748 41.2217 22.1702 40.1171 22.1702C39.0125 22.1702 38.1171 21.2748 38.1171 20.1702C38.1171 19.0656 39.0125 18.1702 40.1171 18.1702ZM49.0838 16.1823C50.1883 16.1823 51.0838 17.0777 51.0838 18.1823C51.0838 19.2869 50.1883 20.1823 49.0838 20.1823C47.9792 20.1823 47.0838 19.2869 47.0838 18.1823C47.0838 17.0777 47.9792 16.1823 49.0838 16.1823Z" fill="url(#paint0_linear_5132_5048)"/>
</g>
<g filter="url(#filter1_i_5132_5048)">
<path fill-rule="evenodd" clip-rule="evenodd" d="M32 23C23.1634 23 16 30.1634 16 39L16.0034 39.3313C16.1672 47.3732 22.2826 54.0157 30.2043 54.9002L30.468 54.927L30.5604 54.9515C30.7019 54.9833 30.849 55 31 55H49L49.2943 54.996C55.262 54.8234 60 49.9545 60 44C60 37.9249 55.0751 33 49 33L48.5683 33.0083C48.1378 33.025 47.7111 33.0666 47.2899 33.1325L46.915 33.198L46.8113 32.9358C44.3965 27.033 38.6037 23 32 23Z" fill="url(#paint1_linear_5132_5048)"/>
</g>
<path fill-rule="evenodd" clip-rule="evenodd" d="M29.1431 52.2572C29.5533 51.2317 30.7173 50.7328 31.7428 51.1431C32.7196 51.5338 33.2185 52.6081 32.9095 53.5954L32.857 53.7428L30.857 58.7428C30.4468 59.7684 29.2828 60.2672 28.2573 59.857C27.2805 59.4663 26.7816 58.3919 27.0906 57.4046L27.1431 57.2572L29.1431 52.2572ZM38.1431 52.2572C38.5533 51.2317 39.7173 50.7328 40.7428 51.1431C41.7196 51.5338 42.2185 52.6081 41.9095 53.5954L41.857 53.7428L39.857 58.7428C39.4468 59.7684 38.2828 60.2672 37.2573 59.857C36.2805 59.4663 35.7816 58.3919 36.0906 57.4046L36.1431 57.2572L38.1431 52.2572ZM47.1431 52.2572C47.5533 51.2317 48.7173 50.7328 49.7428 51.1431C50.7196 51.5338 51.2185 52.6081 50.9095 53.5954L50.857 53.7428L48.857 58.7428C48.4468 59.7684 47.2828 60.2672 46.2573 59.857C45.2805 59.4663 44.7816 58.3919 45.0906 57.4046L45.1431 57.2572L47.1431 52.2572Z" fill="url(#paint2_linear_5132_5048)"/>
<defs>
<filter id="filter0_i_5132_5048" x="38" y="16.1823" width="22.8176" height="24.8177" filterUnits="userSpaceOnUse" color-interpolation-filters="sRGB">
<feFlood flood-opacity="0" result="BackgroundImageFix"/>
<feBlend mode="normal" in="SourceGraphic" in2="BackgroundImageFix" result="shape"/>
<feColorMatrix in="SourceAlpha" type="matrix" values="0 0 0 0 0 0 0 0 0 0 0 0 0 0 0 0 0 0 127 0" result="hardAlpha"/>
<feOffset dy="2"/>
<feGaussianBlur stdDeviation="4"/>
<feComposite in2="hardAlpha" operator="arithmetic" k2="-1" k3="1"/>
<feColorMatrix type="matrix" values="0 0 0 0 1 0 0 0 0 1 0 0 0 0 1 0 0 0 1 0"/>
<feBlend mode="overlay" in2="shape" result="effect1_innerShadow_5132_5048"/>
</filter>
<filter id="filter1_i_5132_5048" x="14" y="23" width="46" height="36" filterUnits="userSpaceOnUse" color-interpolation-filters="sRGB">
<feFlood flood-opacity="0" result="BackgroundImageFix"/>
<feBlend mode="normal" in="SourceGraphic" in2="BackgroundImageFix" result="shape"/>
<feColorMatrix in="SourceAlpha" type="matrix" values="0 0 0 0 0 0 0 0 0 0 0 0 0 0 0 0 0 0 127 0" result="hardAlpha"/>
<feOffset dx="-2" dy="4"/>
<feGaussianBlur stdDeviation="2"/>
<feComposite in2="hardAlpha" operator="arithmetic" k2="-1" k3="1"/>
<feColorMatrix type="matrix" values="0 0 0 0 1 0 0 0 0 1 0 0 0 0 1 0 0 0 1 0"/>
<feBlend mode="normal" in2="shape" result="effect1_innerShadow_5132_5048"/>
</filter>
<linearGradient id="paint0_linear_5132_5048" x1="49.4088" y1="16.1823" x2="49.4088" y2="39" gradientUnits="userSpaceOnUse">
<stop stop-color="#FFD358"/>
<stop offset="1" stop-color="#FA6C21"/>
</linearGradient>
<linearGradient id="paint1_linear_5132_5048" x1="19.0824" y1="23" x2="60.4873" y2="54.3565" gradientUnits="userSpaceOnUse">
<stop stop-color="white"/>
<stop offset="1" stop-color="#B4E6FB"/>
</linearGradient>
<linearGradient id="paint2_linear_5132_5048" x1="26.9995" y1="50.9995" x2="26.9995" y2="60.0005" gradientUnits="userSpaceOnUse">
<stop stop-color="#4CAFFF"/>
<stop offset="1" stop-color="#8FD5FF"/>
</linearGradient>
</defs>
</svg>
