<svg width="76" height="76" viewBox="0 0 76 76" fill="none" xmlns="http://www.w3.org/2000/svg">
<g filter="url(#filter0_i_5132_5067)">
<path fill-rule="evenodd" clip-rule="evenodd" d="M45.6118 15.2381C47.4153 14.8735 48.7127 16.9324 47.6053 18.402C46.7724 19.5074 46.3158 20.8481 46.3158 22.2632C46.3158 25.8094 49.1906 28.6842 52.7368 28.6842C54.1518 28.6842 55.4921 28.2277 56.5969 27.395C58.0663 26.2875 60.1254 27.5844 59.7611 29.3881C58.6389 34.9449 53.737 39 48 39C41.3726 39 36 33.6274 36 27C36 21.2632 40.0548 16.3613 45.6118 15.2381Z" fill="url(#paint0_linear_5132_5067)"/>
</g>
<g filter="url(#filter1_i_5132_5067)">
<path fill-rule="evenodd" clip-rule="evenodd" d="M32 23C23.1634 23 16 30.1634 16 39L16.0034 39.3313C16.1672 47.3732 22.2826 54.0157 30.2043 54.9002L30.468 54.927L30.5604 54.9515C30.7019 54.9833 30.849 55 31 55H49L49.2943 54.996C55.262 54.8234 60 49.9545 60 44C60 37.9249 55.0751 33 49 33L48.5683 33.0083C48.1378 33.025 47.7111 33.0666 47.2899 33.1325L46.915 33.198L46.8113 32.9358C44.3965 27.033 38.6037 23 32 23Z" fill="url(#paint1_linear_5132_5067)"/>
</g>
<path fill-rule="evenodd" clip-rule="evenodd" d="M29.1431 52.2572C29.5533 51.2316 30.7173 50.7328 31.7428 51.143C32.7196 51.5337 33.2185 52.6081 32.9095 53.5954L32.857 53.7428L30.857 58.7428C30.4468 59.7683 29.2828 60.2672 28.2573 59.8569C27.2805 59.4663 26.7816 58.3919 27.0906 57.4046L27.1431 57.2572L29.1431 52.2572ZM38.1431 52.2572C38.5533 51.2316 39.7173 50.7328 40.7428 51.143C41.7196 51.5337 42.2185 52.6081 41.9095 53.5954L41.857 53.7428L39.857 58.7428C39.4468 59.7683 38.2828 60.2672 37.2573 59.8569C36.2805 59.4663 35.7816 58.3919 36.0906 57.4046L36.1431 57.2572L38.1431 52.2572ZM47.1431 52.2572C47.5533 51.2316 48.7173 50.7328 49.7428 51.143C50.7196 51.5337 51.2185 52.6081 50.9095 53.5954L50.857 53.7428L48.857 58.7428C48.4468 59.7683 47.2828 60.2672 46.2573 59.8569C45.2805 59.4663 44.7816 58.3919 45.0906 57.4046L45.1431 57.2572L47.1431 52.2572Z" fill="url(#paint2_linear_5132_5067)"/>
<defs>
<filter id="filter0_i_5132_5067" x="36" y="15.1955" width="23.8035" height="25.8045" filterUnits="userSpaceOnUse" color-interpolation-filters="sRGB">
<feFlood flood-opacity="0" result="BackgroundImageFix"/>
<feBlend mode="normal" in="SourceGraphic" in2="BackgroundImageFix" result="shape"/>
<feColorMatrix in="SourceAlpha" type="matrix" values="0 0 0 0 0 0 0 0 0 0 0 0 0 0 0 0 0 0 127 0" result="hardAlpha"/>
<feOffset dy="2"/>
<feGaussianBlur stdDeviation="8"/>
<feComposite in2="hardAlpha" operator="arithmetic" k2="-1" k3="1"/>
<feColorMatrix type="matrix" values="0 0 0 0 1 0 0 0 0 1 0 0 0 0 1 0 0 0 1 0"/>
<feBlend mode="overlay" in2="shape" result="effect1_innerShadow_5132_5067"/>
</filter>
<filter id="filter1_i_5132_5067" x="14" y="23" width="46" height="36" filterUnits="userSpaceOnUse" color-interpolation-filters="sRGB">
<feFlood flood-opacity="0" result="BackgroundImageFix"/>
<feBlend mode="normal" in="SourceGraphic" in2="BackgroundImageFix" result="shape"/>
<feColorMatrix in="SourceAlpha" type="matrix" values="0 0 0 0 0 0 0 0 0 0 0 0 0 0 0 0 0 0 127 0" result="hardAlpha"/>
<feOffset dx="-2" dy="4"/>
<feGaussianBlur stdDeviation="2"/>
<feComposite in2="hardAlpha" operator="arithmetic" k2="-1" k3="1"/>
<feColorMatrix type="matrix" values="0 0 0 0 1 0 0 0 0 1 0 0 0 0 1 0 0 0 1 0"/>
<feBlend mode="normal" in2="shape" result="effect1_innerShadow_5132_5067"/>
</filter>
<linearGradient id="paint0_linear_5132_5067" x1="47.9018" y1="15.1955" x2="47.9018" y2="39" gradientUnits="userSpaceOnUse">
<stop stop-color="#FFD358"/>
<stop offset="1" stop-color="#FA6C21"/>
</linearGradient>
<linearGradient id="paint1_linear_5132_5067" x1="19.0824" y1="23" x2="60.4873" y2="54.3565" gradientUnits="userSpaceOnUse">
<stop stop-color="white"/>
<stop offset="1" stop-color="#B4E6FB"/>
</linearGradient>
<linearGradient id="paint2_linear_5132_5067" x1="26.9995" y1="50.9995" x2="26.9995" y2="60.0005" gradientUnits="userSpaceOnUse">
<stop stop-color="#4CAFFF"/>
<stop offset="1" stop-color="#8FD5FF"/>
</linearGradient>
</defs>
</svg>
