<svg width="76" height="76" viewBox="0 0 76 76" fill="none" xmlns="http://www.w3.org/2000/svg">
<rect width="76" height="76" fill="#474747"/>
<g filter="url(#filter0_i_5132_5035)">
<path fill-rule="evenodd" clip-rule="evenodd" d="M47 16.92C51.9706 16.92 56 20.9495 56 25.92C56 30.8906 51.9706 34.92 47 34.92C42.0294 34.92 38 30.8906 38 25.92C38 20.9495 42.0294 16.92 47 16.92ZM58.8177 26.0038C59.9223 26.0038 60.8177 26.8993 60.8177 28.0038C60.8177 29.1084 59.9223 30.0038 58.8177 30.0038C57.7131 30.0038 56.8177 29.1084 56.8177 28.0038C56.8177 26.8993 57.7131 26.0038 58.8177 26.0038ZM56.8298 17.0371C57.9344 17.0371 58.8298 17.9326 58.8298 19.0371C58.8298 20.1417 57.9344 21.0371 56.8298 21.0371C55.7253 21.0371 54.8298 20.1417 54.8298 19.0371C54.8298 17.9326 55.7253 17.0371 56.8298 17.0371ZM40.1171 14.0902C41.2217 14.0902 42.1171 14.9857 42.1171 16.0902C42.1171 17.1948 41.2217 18.0902 40.1171 18.0902C39.0125 18.0902 38.1171 17.1948 38.1171 16.0902C38.1171 14.9857 39.0125 14.0902 40.1171 14.0902ZM49.0838 12.1024C50.1883 12.1024 51.0838 12.9978 51.0838 14.1024C51.0838 15.2069 50.1883 16.1024 49.0838 16.1024C47.9792 16.1024 47.0838 15.2069 47.0838 14.1024C47.0838 12.9978 47.9792 12.1024 49.0838 12.1024Z" fill="url(#paint0_linear_5132_5035)"/>
</g>
<g filter="url(#filter1_i_5132_5035)">
<path fill-rule="evenodd" clip-rule="evenodd" d="M32 18.92C23.1634 18.92 16 26.0835 16 34.92L16.0034 35.2513C16.1672 43.2932 22.2826 49.9357 30.2043 50.8203L30.468 50.847L30.5604 50.8716C30.7019 50.9033 30.849 50.92 31 50.92H49L49.2943 50.916C55.262 50.7434 60 45.8745 60 39.92C60 33.8449 55.0751 28.92 49 28.92L48.5683 28.9284C48.1378 28.9451 47.7111 28.9867 47.2899 29.0526L46.915 29.118L46.8113 28.8558C44.3965 22.953 38.6037 18.92 32 18.92Z" fill="url(#paint1_linear_5132_5035)"/>
</g>
<g filter="url(#filter2_i_5132_5035)">
<path fill-rule="evenodd" clip-rule="evenodd" d="M26.5512 54.343L26.5091 54.3336C26.2564 54.2659 26.101 54.0163 26.1461 53.7634L26.1555 53.7212L26.651 51.8723L25.8128 50.4203L24.974 51.8723L25.4695 53.7212C25.541 53.988 25.3827 54.2621 25.1159 54.3336C24.8633 54.4013 24.6039 54.2628 24.5165 54.0213L24.5036 53.9801L24.2669 53.0971L23.8705 53.7837C23.7324 54.0228 23.4266 54.1047 23.1875 53.9667C22.9592 53.8349 22.8742 53.5503 22.987 53.3167L23.0045 53.2837L23.4009 52.5971L22.5179 52.8336C22.2652 52.9013 22.0058 52.7628 21.9184 52.5213L21.9055 52.4801C21.8378 52.2274 21.9763 51.968 22.2179 51.8806L22.2591 51.8677L24.108 51.3723L24.9465 49.9203L23.2698 49.92L21.9161 51.2736C21.7208 51.4689 21.4042 51.4689 21.2089 51.2736C21.024 51.0886 21.0142 50.7947 21.1797 50.5983L21.2089 50.5665L21.8555 49.92L21.0625 49.92C20.7864 49.92 20.5625 49.6962 20.5625 49.42C20.5625 49.1564 20.7665 48.9405 21.0252 48.9214L21.0625 48.92L21.8555 48.92L21.2089 48.2736C21.024 48.0886 21.0142 47.7947 21.1797 47.5983L21.2089 47.5665C21.3939 47.3815 21.6878 47.3718 21.8843 47.5373L21.9161 47.5665L23.2698 48.92L24.9468 48.9203L24.1081 47.468L22.2591 46.9724C21.9923 46.9009 21.834 46.6268 21.9055 46.36C21.9732 46.1073 22.2228 45.952 22.4757 45.9971L22.5179 46.0065L23.401 46.2432L23.0045 45.5564C22.8664 45.3173 22.9484 45.0115 23.1875 44.8734C23.4158 44.7416 23.7048 44.8103 23.8507 45.0248L23.8705 45.0564L24.267 45.7432L24.5036 44.86C24.5713 44.6073 24.8209 44.452 25.0738 44.4971L25.1159 44.5065C25.3686 44.5742 25.524 44.8238 25.4789 45.0767L25.4695 45.1188L24.9741 46.9679L25.8128 48.42L26.6509 46.9679L26.1555 45.1188C26.084 44.8521 26.2423 44.5779 26.5091 44.5065C26.7617 44.4388 27.0211 44.5773 27.1085 44.8188L27.1214 44.86L27.358 45.7432L27.7545 45.0564C27.8926 44.8173 28.1984 44.7353 28.4375 44.8734C28.6658 45.0052 28.7508 45.2898 28.638 45.5234L28.6205 45.5564L28.224 46.2432L29.1071 46.0065C29.3598 45.9388 29.6192 46.0773 29.7066 46.3188L29.7195 46.36C29.7872 46.6127 29.6487 46.8721 29.4071 46.9595L29.3659 46.9724L27.5169 47.468L26.6785 48.9203L28.3555 48.92L29.7089 47.5665C29.9042 47.3712 30.2208 47.3712 30.4161 47.5665C30.601 47.7515 30.6108 48.0453 30.4453 48.2418L30.4161 48.2736L29.7698 48.92L30.5625 48.92C30.8386 48.92 31.0625 49.1439 31.0625 49.42C31.0625 49.6836 30.8585 49.8996 30.5998 49.9187L30.5625 49.92L29.7698 49.92L30.4161 50.5665C30.601 50.7515 30.6108 51.0453 30.4453 51.2418L30.4161 51.2736C30.2311 51.4586 29.9372 51.4683 29.7408 51.3028L29.7089 51.2736L28.3555 49.92L26.6788 49.9203L27.517 51.3723L29.3659 51.8677C29.6327 51.9392 29.791 52.2133 29.7195 52.4801C29.6518 52.7327 29.4022 52.8881 29.1493 52.843L29.1071 52.8336L28.2241 52.5971L28.6205 53.2837C28.7586 53.5228 28.6766 53.8286 28.4375 53.9667C28.2092 54.0985 27.9202 54.0298 27.7743 53.8153L27.7545 53.7837L27.3581 53.0971L27.1214 53.9801C27.0537 54.2327 26.8041 54.3881 26.5512 54.343Z" fill="url(#paint2_linear_5132_5035)"/>
</g>
<g filter="url(#filter3_i_5132_5035)">
<path fill-rule="evenodd" clip-rule="evenodd" d="M54.3661 45.1824L54.3309 45.1746C54.1204 45.1182 53.9909 44.9102 54.0285 44.6994L54.0363 44.6643L54.4492 43.1235L53.7507 41.9135L53.0517 43.1235L53.4647 44.6643C53.5242 44.8866 53.3923 45.115 53.17 45.1746C52.9594 45.231 52.7433 45.1156 52.6705 44.9143L52.6597 44.88L52.4625 44.1442L52.1322 44.7163C52.0171 44.9156 51.7623 44.9839 51.563 44.8688C51.3728 44.759 51.3019 44.5218 51.3959 44.3271L51.4105 44.2996L51.7408 43.7275L51.005 43.9246C50.7944 43.981 50.5782 43.8656 50.5054 43.6643L50.4947 43.63C50.4382 43.4194 50.5536 43.2033 50.755 43.1304L50.7893 43.1197L52.3301 42.7069L53.0288 41.4968L51.6315 41.4966L50.5034 42.6246C50.3407 42.7873 50.0769 42.7873 49.9142 42.6246C49.76 42.4704 49.7519 42.2255 49.8899 42.0618L49.9142 42.0353L50.453 41.4966L49.7922 41.4966C49.562 41.4966 49.3755 41.3101 49.3755 41.08C49.3755 40.8603 49.5455 40.6803 49.7611 40.6644L49.7922 40.6633L50.453 40.6633L49.9142 40.1246C49.76 39.9704 49.7519 39.7255 49.8899 39.5618L49.9142 39.5353C50.0683 39.3812 50.3132 39.3731 50.4769 39.511L50.5034 39.5353L51.6315 40.6633L53.029 40.6635L52.3302 39.4532L50.7893 39.0403C50.567 38.9807 50.4351 38.7522 50.4947 38.5299C50.5511 38.3194 50.7591 38.1899 50.9698 38.2275L51.005 38.2353L51.7409 38.4326L51.4105 37.8603C51.2954 37.661 51.3637 37.4062 51.563 37.2911C51.7532 37.1813 51.9941 37.2385 52.1156 37.4173L52.1322 37.4436L52.4626 38.0159L52.6597 37.2799C52.7161 37.0694 52.9242 36.9399 53.1349 36.9775L53.17 36.9853C53.3806 37.0417 53.5101 37.2498 53.4725 37.4605L53.4647 37.4956L53.0519 39.0366L53.7507 40.2466L54.4491 39.0366L54.0363 37.4956C53.9768 37.2734 54.1087 37.0449 54.3309 36.9853C54.5415 36.9289 54.7577 37.0443 54.8305 37.2456L54.8413 37.2799L55.0384 38.0159L55.3688 37.4436C55.4839 37.2443 55.7387 37.176 55.938 37.2911C56.1282 37.4009 56.1991 37.6381 56.1051 37.8328L56.0905 37.8603L55.7601 38.4326L56.496 38.2353C56.7066 38.1789 56.9227 38.2943 56.9955 38.4956L57.0063 38.5299C57.0627 38.7405 56.9473 38.9567 56.746 39.0295L56.7117 39.0403L55.1708 39.4532L54.4722 40.6635L55.8697 40.6633L56.9975 39.5353C57.1602 39.3726 57.4241 39.3726 57.5868 39.5353C57.7409 39.6895 57.7491 39.9344 57.6111 40.0981L57.5868 40.1246L57.0482 40.6633L57.7088 40.6633C57.9389 40.6633 58.1255 40.8498 58.1255 41.08C58.1255 41.2996 57.9555 41.4796 57.7399 41.4955L57.7088 41.4966L57.0482 41.4966L57.5868 42.0353C57.7409 42.1895 57.7491 42.4344 57.6111 42.5981L57.5868 42.6246C57.4326 42.7787 57.1877 42.7869 57.024 42.6489L56.9975 42.6246L55.8697 41.4966L54.4724 41.4968L55.1709 42.7069L56.7117 43.1197C56.934 43.1792 57.0659 43.4077 57.0063 43.63C56.9499 43.8406 56.7419 43.97 56.5311 43.9324L56.496 43.9246L55.7602 43.7275L56.0905 44.2996C56.2056 44.4989 56.1373 44.7538 55.938 44.8688C55.7478 44.9787 55.5069 44.9214 55.3853 44.7427L55.3688 44.7163L55.0385 44.1442L54.8413 44.88C54.7848 45.0906 54.5768 45.22 54.3661 45.1824Z" fill="url(#paint3_linear_5132_5035)"/>
</g>
<g filter="url(#filter4_i_5132_5035)">
<path fill-rule="evenodd" clip-rule="evenodd" d="M29.1809 29.8829L29.1563 29.8774C29.0089 29.8379 28.9183 29.6923 28.9446 29.5448L28.9501 29.5202L29.2391 28.4417L28.7501 27.5947L28.2609 28.4417L28.5499 29.5202C28.5916 29.6758 28.4993 29.8357 28.3437 29.8774C28.1963 29.9169 28.045 29.8361 27.994 29.6952L27.9865 29.6712L27.8484 29.1562L27.6172 29.5566C27.5366 29.6961 27.3583 29.7439 27.2187 29.6634C27.0856 29.5865 27.036 29.4205 27.1018 29.2842L27.112 29.265L27.3432 28.8645L26.8281 29.0024C26.6807 29.0419 26.5294 28.9611 26.4785 28.8202L26.4709 28.7962C26.4314 28.6488 26.5122 28.4975 26.6531 28.4465L26.6772 28.439L27.7557 28.15L28.2448 27.303L27.2667 27.3029L26.4771 28.0924C26.3632 28.2063 26.1785 28.2063 26.0646 28.0924C25.9567 27.9845 25.951 27.8131 26.0476 27.6985L26.0646 27.68L26.4417 27.3029L25.9792 27.3029C25.8181 27.3029 25.6875 27.1723 25.6875 27.0112C25.6875 26.8574 25.8065 26.7315 25.9574 26.7203L25.9792 26.7195L26.4417 26.7195L26.0646 26.3424C25.9567 26.2345 25.951 26.0631 26.0476 25.9485L26.0646 25.93C26.1725 25.822 26.3439 25.8164 26.4585 25.9129L26.4771 25.93L27.2667 26.7195L28.245 26.7197L27.7558 25.8725L26.6772 25.5834C26.5216 25.5417 26.4292 25.3818 26.4709 25.2262C26.5104 25.0788 26.656 24.9881 26.8035 25.0145L26.8281 25.0199L27.3433 25.158L27.112 24.7574C27.0315 24.6179 27.0792 24.4395 27.2188 24.359C27.3519 24.2821 27.5205 24.3222 27.6056 24.4473L27.6172 24.4657L27.8485 24.8664L27.9865 24.3512C28.026 24.2038 28.1716 24.1131 28.3191 24.1395L28.3437 24.1449C28.4911 24.1844 28.5817 24.3301 28.5554 24.4776L28.5499 24.5022L28.261 25.5808L28.7501 26.4278L29.239 25.5808L28.9501 24.5022C28.9084 24.3466 29.0007 24.1866 29.1563 24.1449C29.3037 24.1054 29.455 24.1862 29.506 24.3271L29.5135 24.3512L29.6515 24.8664L29.8828 24.4657C29.9634 24.3262 30.1417 24.2784 30.2813 24.359C30.4144 24.4359 30.464 24.6019 30.3982 24.7382L30.388 24.7574L30.1567 25.158L30.6719 25.0199C30.8193 24.9804 30.9706 25.0612 31.0215 25.2021L31.0291 25.2262C31.0686 25.3736 30.9878 25.5249 30.8469 25.5759L30.8228 25.5834L29.7442 25.8725L29.2552 26.7197L30.2334 26.7195L31.0229 25.93C31.1368 25.816 31.3215 25.816 31.4354 25.93C31.5433 26.0379 31.549 26.2093 31.4524 26.3239L31.4354 26.3424L31.0584 26.7195L31.5208 26.7195C31.6819 26.7195 31.8125 26.8501 31.8125 27.0112C31.8125 27.165 31.6935 27.2909 31.5426 27.3021L31.5208 27.3029L31.0584 27.3029L31.4354 27.68C31.5433 27.7879 31.549 27.9593 31.4524 28.0739L31.4354 28.0924C31.3275 28.2003 31.1561 28.206 31.0415 28.1095L31.0229 28.0924L30.2334 27.3029L29.2553 27.303L29.7443 28.15L30.8228 28.439C30.9784 28.4807 31.0708 28.6406 31.0291 28.7962C30.9896 28.9436 30.844 29.0342 30.6965 29.0079L30.6719 29.0024L30.1568 28.8645L30.388 29.265C30.4685 29.4045 30.4208 29.5829 30.2812 29.6634C30.1481 29.7403 29.9795 29.7002 29.8944 29.5751L29.8828 29.5566L29.6516 29.1562L29.5135 29.6712C29.474 29.8186 29.3284 29.9092 29.1809 29.8829Z" fill="url(#paint4_linear_5132_5035)"/>
</g>
<g filter="url(#filter5_i_5132_5035)">
<path fill-rule="evenodd" clip-rule="evenodd" d="M44.6814 58.4517L44.6568 58.4462C44.5094 58.4067 44.4188 58.2611 44.4451 58.1136L44.4506 58.089L44.7396 57.0105L44.2506 56.1634L43.7614 57.0105L44.0504 58.089C44.0921 58.2446 43.9998 58.4045 43.8442 58.4462C43.6968 58.4857 43.5455 58.4049 43.4945 58.264L43.4869 58.24L43.3489 57.7249L43.1177 58.1254C43.0371 58.2649 42.8587 58.3127 42.7192 58.2321C42.5861 58.1553 42.5365 57.9892 42.6023 57.853L42.6125 57.8337L42.8437 57.4332L42.3286 57.5712C42.1812 57.6107 42.0299 57.5299 41.979 57.389L41.9714 57.365C41.9319 57.2176 42.0127 57.0663 42.1536 57.0153L42.1776 57.0077L43.2562 56.7188L43.7453 55.8717L42.7672 55.8716L41.9776 56.6612C41.8637 56.7751 41.679 56.7751 41.5651 56.6612C41.4572 56.5533 41.4515 56.3819 41.548 56.2673L41.5651 56.2487L41.9422 55.8716L41.4797 55.8716C41.3186 55.8716 41.188 55.741 41.188 55.5799C41.188 55.4262 41.307 55.3002 41.4579 55.2891L41.4797 55.2883L41.9422 55.2883L41.5651 54.9112C41.4572 54.8033 41.4515 54.6319 41.548 54.5173L41.5651 54.4987C41.673 54.3908 41.8444 54.3851 41.959 54.4817L41.9776 54.4987L42.7672 55.2883L43.7455 55.2884L43.2563 54.4412L42.1776 54.1522C42.022 54.1105 41.9297 53.9505 41.9714 53.7949C42.0109 53.6475 42.1565 53.5569 42.304 53.5832L42.3286 53.5887L42.8438 53.7268L42.6125 53.3262C42.5319 53.1867 42.5797 53.0083 42.7192 52.9277C42.8524 52.8509 43.021 52.8909 43.1061 53.0161L43.1177 53.0345L43.349 53.4351L43.4869 52.9199C43.5264 52.7725 43.6721 52.6819 43.8196 52.7082L43.8442 52.7137C43.9916 52.7532 44.0822 52.8988 44.0559 53.0463L44.0504 53.0709L43.7614 54.1496L44.2506 54.9966L44.7395 54.1496L44.4506 53.0709C44.4089 52.9153 44.5012 52.7554 44.6568 52.7137C44.8042 52.6742 44.9555 52.755 45.0065 52.8959L45.014 52.9199L45.152 53.4351L45.3833 53.0345C45.4639 52.895 45.6422 52.8472 45.7817 52.9277C45.9149 53.0046 45.9645 53.1707 45.8987 53.3069L45.8885 53.3262L45.6572 53.7268L46.1724 53.5887C46.3198 53.5492 46.4711 53.63 46.522 53.7709L46.5296 53.7949C46.5691 53.9423 46.4883 54.0936 46.3474 54.1446L46.3233 54.1522L45.2447 54.4412L44.7557 55.2884L45.7339 55.2883L46.5234 54.4987C46.6373 54.3848 46.822 54.3848 46.9359 54.4987C47.0438 54.6066 47.0495 54.778 46.9529 54.8926L46.9359 54.9112L46.5589 55.2883L47.0213 55.2883C47.1824 55.2883 47.313 55.4189 47.313 55.5799C47.313 55.7337 47.194 55.8597 47.0431 55.8708L47.0213 55.8716L46.5589 55.8716L46.9359 56.2487C47.0438 56.3566 47.0495 56.528 46.9529 56.6426L46.9359 56.6612C46.828 56.7691 46.6566 56.7748 46.542 56.6782L46.5234 56.6612L45.7339 55.8716L44.7558 55.8717L45.2448 56.7188L46.3233 57.0077C46.4789 57.0494 46.5713 57.2094 46.5296 57.365C46.4901 57.5124 46.3445 57.603 46.1969 57.5767L46.1724 57.5712L45.6573 57.4332L45.8885 57.8337C45.969 57.9732 45.9212 58.1516 45.7817 58.2321C45.6486 58.309 45.48 58.269 45.3949 58.1438L45.3833 58.1254L45.1521 57.7249L45.014 58.24C44.9745 58.3874 44.8289 58.478 44.6814 58.4517Z" fill="url(#paint5_linear_5132_5035)"/>
</g>
<g filter="url(#filter6_i_5132_5035)">
<path fill-rule="evenodd" clip-rule="evenodd" d="M32.6809 65.4517L32.6563 65.4462C32.5089 65.4067 32.4183 65.2611 32.4446 65.1136L32.4501 65.089L32.7391 64.0105L32.2501 63.1634L31.7609 64.0105L32.0499 65.089C32.0916 65.2446 31.9993 65.4045 31.8437 65.4462C31.6963 65.4857 31.545 65.4049 31.494 65.264L31.4865 65.24L31.3484 64.7249L31.1172 65.1254C31.0366 65.2649 30.8583 65.3127 30.7187 65.2321C30.5856 65.1553 30.536 64.9892 30.6018 64.853L30.612 64.8337L30.8432 64.4332L30.3281 64.5712C30.1807 64.6107 30.0294 64.5299 29.9785 64.389L29.9709 64.365C29.9314 64.2176 30.0122 64.0663 30.1531 64.0153L30.1772 64.0077L31.2557 63.7188L31.7448 62.8717L30.7667 62.8716L29.9771 63.6612C29.8632 63.7751 29.6785 63.7751 29.5646 63.6612C29.4567 63.5533 29.451 63.3819 29.5476 63.2673L29.5646 63.2487L29.9417 62.8716L29.4792 62.8716C29.3181 62.8716 29.1875 62.741 29.1875 62.5799C29.1875 62.4262 29.3065 62.3002 29.4574 62.2891L29.4792 62.2883L29.9417 62.2883L29.5646 61.9112C29.4567 61.8033 29.451 61.6319 29.5476 61.5173L29.5646 61.4987C29.6725 61.3908 29.8439 61.3851 29.9585 61.4817L29.9771 61.4987L30.7667 62.2883L31.745 62.2884L31.2558 61.4412L30.1772 61.1522C30.0216 61.1105 29.9292 60.9505 29.9709 60.7949C30.0104 60.6475 30.156 60.5569 30.3035 60.5832L30.3281 60.5887L30.8433 60.7268L30.612 60.3262C30.5315 60.1867 30.5792 60.0083 30.7188 59.9277C30.8519 59.8509 31.0205 59.8909 31.1056 60.0161L31.1172 60.0345L31.3485 60.4351L31.4865 59.9199C31.526 59.7725 31.6716 59.6819 31.8191 59.7082L31.8437 59.7137C31.9911 59.7532 32.0817 59.8988 32.0554 60.0463L32.0499 60.0709L31.761 61.1496L32.2501 61.9966L32.739 61.1496L32.4501 60.0709C32.4084 59.9153 32.5007 59.7554 32.6563 59.7137C32.8037 59.6742 32.955 59.755 33.006 59.8959L33.0135 59.9199L33.1515 60.4351L33.3828 60.0345C33.4634 59.895 33.6417 59.8472 33.7813 59.9277C33.9144 60.0046 33.964 60.1707 33.8982 60.3069L33.888 60.3262L33.6567 60.7268L34.1719 60.5887C34.3193 60.5492 34.4706 60.63 34.5215 60.7709L34.5291 60.7949C34.5686 60.9423 34.4878 61.0936 34.3469 61.1446L34.3228 61.1522L33.2442 61.4412L32.7552 62.2884L33.7334 62.2883L34.5229 61.4987C34.6368 61.3848 34.8215 61.3848 34.9354 61.4987C35.0433 61.6066 35.049 61.778 34.9524 61.8926L34.9354 61.9112L34.5584 62.2883L35.0208 62.2883C35.1819 62.2883 35.3125 62.4189 35.3125 62.5799C35.3125 62.7337 35.1935 62.8597 35.0426 62.8708L35.0208 62.8716L34.5584 62.8716L34.9354 63.2487C35.0433 63.3566 35.049 63.528 34.9524 63.6426L34.9354 63.6612C34.8275 63.7691 34.6561 63.7748 34.5415 63.6782L34.5229 63.6612L33.7334 62.8716L32.7553 62.8717L33.2443 63.7188L34.3228 64.0077C34.4784 64.0494 34.5708 64.2094 34.5291 64.365C34.4896 64.5124 34.344 64.603 34.1965 64.5767L34.1719 64.5712L33.6568 64.4332L33.888 64.8337C33.9685 64.9732 33.9208 65.1516 33.7812 65.2321C33.6481 65.309 33.4795 65.269 33.3944 65.1438L33.3828 65.1254L33.1516 64.7249L33.0135 65.24C32.974 65.3874 32.8284 65.478 32.6809 65.4517Z" fill="url(#paint6_linear_5132_5035)"/>
</g>
<defs>
<filter id="filter0_i_5132_5035" x="38" y="12.1024" width="22.8176" height="24.8177" filterUnits="userSpaceOnUse" color-interpolation-filters="sRGB">
<feFlood flood-opacity="0" result="BackgroundImageFix"/>
<feBlend mode="normal" in="SourceGraphic" in2="BackgroundImageFix" result="shape"/>
<feColorMatrix in="SourceAlpha" type="matrix" values="0 0 0 0 0 0 0 0 0 0 0 0 0 0 0 0 0 0 127 0" result="hardAlpha"/>
<feOffset dy="2"/>
<feGaussianBlur stdDeviation="4"/>
<feComposite in2="hardAlpha" operator="arithmetic" k2="-1" k3="1"/>
<feColorMatrix type="matrix" values="0 0 0 0 1 0 0 0 0 1 0 0 0 0 1 0 0 0 1 0"/>
<feBlend mode="overlay" in2="shape" result="effect1_innerShadow_5132_5035"/>
</filter>
<filter id="filter1_i_5132_5035" x="14" y="18.92" width="46" height="36" filterUnits="userSpaceOnUse" color-interpolation-filters="sRGB">
<feFlood flood-opacity="0" result="BackgroundImageFix"/>
<feBlend mode="normal" in="SourceGraphic" in2="BackgroundImageFix" result="shape"/>
<feColorMatrix in="SourceAlpha" type="matrix" values="0 0 0 0 0 0 0 0 0 0 0 0 0 0 0 0 0 0 127 0" result="hardAlpha"/>
<feOffset dx="-2" dy="4"/>
<feGaussianBlur stdDeviation="2"/>
<feComposite in2="hardAlpha" operator="arithmetic" k2="-1" k3="1"/>
<feColorMatrix type="matrix" values="0 0 0 0 1 0 0 0 0 1 0 0 0 0 1 0 0 0 1 0"/>
<feBlend mode="normal" in2="shape" result="effect1_innerShadow_5132_5035"/>
</filter>
<filter id="filter2_i_5132_5035" x="20.5625" y="44.4893" width="10.5" height="11.8615" filterUnits="userSpaceOnUse" color-interpolation-filters="sRGB">
<feFlood flood-opacity="0" result="BackgroundImageFix"/>
<feBlend mode="normal" in="SourceGraphic" in2="BackgroundImageFix" result="shape"/>
<feColorMatrix in="SourceAlpha" type="matrix" values="0 0 0 0 0 0 0 0 0 0 0 0 0 0 0 0 0 0 127 0" result="hardAlpha"/>
<feOffset dy="2"/>
<feGaussianBlur stdDeviation="4"/>
<feComposite in2="hardAlpha" operator="arithmetic" k2="-1" k3="1"/>
<feColorMatrix type="matrix" values="0 0 0 0 0.831313 0 0 0 0 0.98288 0 0 0 0 0.98288 0 0 0 1 0"/>
<feBlend mode="normal" in2="shape" result="effect1_innerShadow_5132_5035"/>
</filter>
<filter id="filter3_i_5132_5035" x="49.3755" y="36.971" width="8.75" height="10.2179" filterUnits="userSpaceOnUse" color-interpolation-filters="sRGB">
<feFlood flood-opacity="0" result="BackgroundImageFix"/>
<feBlend mode="normal" in="SourceGraphic" in2="BackgroundImageFix" result="shape"/>
<feColorMatrix in="SourceAlpha" type="matrix" values="0 0 0 0 0 0 0 0 0 0 0 0 0 0 0 0 0 0 127 0" result="hardAlpha"/>
<feOffset dy="2"/>
<feGaussianBlur stdDeviation="4"/>
<feComposite in2="hardAlpha" operator="arithmetic" k2="-1" k3="1"/>
<feColorMatrix type="matrix" values="0 0 0 0 0.831313 0 0 0 0 0.98288 0 0 0 0 0.98288 0 0 0 1 0"/>
<feBlend mode="normal" in2="shape" result="effect1_innerShadow_5132_5035"/>
</filter>
<filter id="filter4_i_5132_5035" x="25.6875" y="24.1349" width="6.125" height="7.75253" filterUnits="userSpaceOnUse" color-interpolation-filters="sRGB">
<feFlood flood-opacity="0" result="BackgroundImageFix"/>
<feBlend mode="normal" in="SourceGraphic" in2="BackgroundImageFix" result="shape"/>
<feColorMatrix in="SourceAlpha" type="matrix" values="0 0 0 0 0 0 0 0 0 0 0 0 0 0 0 0 0 0 127 0" result="hardAlpha"/>
<feOffset dy="2"/>
<feGaussianBlur stdDeviation="4"/>
<feComposite in2="hardAlpha" operator="arithmetic" k2="-1" k3="1"/>
<feColorMatrix type="matrix" values="0 0 0 0 0.831313 0 0 0 0 0.98288 0 0 0 0 0.98288 0 0 0 1 0"/>
<feBlend mode="normal" in2="shape" result="effect1_innerShadow_5132_5035"/>
</filter>
<filter id="filter5_i_5132_5035" x="41.188" y="52.7037" width="6.125" height="7.75253" filterUnits="userSpaceOnUse" color-interpolation-filters="sRGB">
<feFlood flood-opacity="0" result="BackgroundImageFix"/>
<feBlend mode="normal" in="SourceGraphic" in2="BackgroundImageFix" result="shape"/>
<feColorMatrix in="SourceAlpha" type="matrix" values="0 0 0 0 0 0 0 0 0 0 0 0 0 0 0 0 0 0 127 0" result="hardAlpha"/>
<feOffset dy="2"/>
<feGaussianBlur stdDeviation="4"/>
<feComposite in2="hardAlpha" operator="arithmetic" k2="-1" k3="1"/>
<feColorMatrix type="matrix" values="0 0 0 0 0.831313 0 0 0 0 0.98288 0 0 0 0 0.98288 0 0 0 1 0"/>
<feBlend mode="normal" in2="shape" result="effect1_innerShadow_5132_5035"/>
</filter>
<filter id="filter6_i_5132_5035" x="29.1875" y="59.7037" width="6.125" height="7.75253" filterUnits="userSpaceOnUse" color-interpolation-filters="sRGB">
<feFlood flood-opacity="0" result="BackgroundImageFix"/>
<feBlend mode="normal" in="SourceGraphic" in2="BackgroundImageFix" result="shape"/>
<feColorMatrix in="SourceAlpha" type="matrix" values="0 0 0 0 0 0 0 0 0 0 0 0 0 0 0 0 0 0 127 0" result="hardAlpha"/>
<feOffset dy="2"/>
<feGaussianBlur stdDeviation="4"/>
<feComposite in2="hardAlpha" operator="arithmetic" k2="-1" k3="1"/>
<feColorMatrix type="matrix" values="0 0 0 0 0.831313 0 0 0 0 0.98288 0 0 0 0 0.98288 0 0 0 1 0"/>
<feBlend mode="normal" in2="shape" result="effect1_innerShadow_5132_5035"/>
</filter>
<linearGradient id="paint0_linear_5132_5035" x1="49.4088" y1="12.1024" x2="49.4088" y2="34.92" gradientUnits="userSpaceOnUse">
<stop stop-color="#FFD358"/>
<stop offset="1" stop-color="#FA6C21"/>
</linearGradient>
<linearGradient id="paint1_linear_5132_5035" x1="19.0824" y1="18.92" x2="60.4873" y2="50.2766" gradientUnits="userSpaceOnUse">
<stop stop-color="white"/>
<stop offset="1" stop-color="#B4E6FB"/>
</linearGradient>
<linearGradient id="paint2_linear_5132_5035" x1="31.0625" y1="54.3508" x2="31.0625" y2="44.4893" gradientUnits="userSpaceOnUse">
<stop stop-color="#8FD5FF"/>
<stop offset="1" stop-color="#4CAFFF"/>
</linearGradient>
<linearGradient id="paint3_linear_5132_5035" x1="58.1255" y1="45.1889" x2="58.1255" y2="36.971" gradientUnits="userSpaceOnUse">
<stop stop-color="#0178C0"/>
<stop offset="1" stop-color="#008CFF"/>
</linearGradient>
<linearGradient id="paint4_linear_5132_5035" x1="31.8125" y1="29.8875" x2="31.8125" y2="24.1349" gradientUnits="userSpaceOnUse">
<stop stop-color="#0178C0"/>
<stop offset="1" stop-color="#008CFF"/>
</linearGradient>
<linearGradient id="paint5_linear_5132_5035" x1="47.313" y1="58.4562" x2="47.313" y2="52.7037" gradientUnits="userSpaceOnUse">
<stop stop-color="#0178C0"/>
<stop offset="1" stop-color="#008CFF"/>
</linearGradient>
<linearGradient id="paint6_linear_5132_5035" x1="35.3125" y1="65.4562" x2="35.3125" y2="59.7037" gradientUnits="userSpaceOnUse">
<stop stop-color="#0178C0"/>
<stop offset="1" stop-color="#008CFF"/>
</linearGradient>
</defs>
</svg>
