<svg width="76" height="76" viewBox="0 0 76 76" fill="none" xmlns="http://www.w3.org/2000/svg">
<g filter="url(#filter0_i_5132_5042)">
<path fill-rule="evenodd" clip-rule="evenodd" d="M38 54C39.0544 54 39.9182 54.8159 39.9945 55.8507L40 56V58C40 59.1046 39.1046 60 38 60C36.9456 60 36.0818 59.1841 36.0055 58.1493L36 58V56C36 54.8954 36.8954 54 38 54ZM38 16C39.0544 16 39.9182 16.8159 39.9945 17.8507L40 18V20C40 21.1046 39.1046 22 38 22C36.9456 22 36.0818 21.1841 36.0055 20.1493L36 20V18C36 16.8954 36.8954 16 38 16ZM22 38C22 39.0544 21.1841 39.9182 20.1493 39.9945L20 40H18C16.8954 40 16 39.1046 16 38C16 36.9456 16.8159 36.0818 17.8507 36.0055L18 36H20C21.1046 36 22 36.8954 22 38ZM60 38C60 39.0544 59.1841 39.9182 58.1493 39.9945L58 40H56C54.8954 40 54 39.1046 54 38C54 36.9456 54.8159 36.0818 55.8507 36.0055L56 36H58C59.1046 36 60 36.8954 60 38ZM26.6863 26.6863C25.9407 27.4318 24.753 27.4657 23.9673 26.788L23.8579 26.6863L22.4437 25.2721C21.6626 24.491 21.6626 23.2247 22.4437 22.4437C23.1892 21.6981 24.3769 21.6642 25.1627 22.342L25.2721 22.4437L26.6863 23.8579C27.4673 24.6389 27.4673 25.9052 26.6863 26.6863ZM53.5564 53.5564C52.8108 54.3019 51.6231 54.3358 50.8373 53.658L50.7279 53.5564L49.3137 52.1421C48.5327 51.3611 48.5327 50.0948 49.3137 49.3137C50.0593 48.5682 51.247 48.5343 52.0327 49.212L52.1421 49.3137L53.5564 50.7279C54.3374 51.509 54.3374 52.7753 53.5564 53.5564ZM26.6863 49.3137C27.4318 50.0593 27.4657 51.247 26.788 52.0327L26.6863 52.1421L25.2721 53.5564C24.491 54.3374 23.2247 54.3374 22.4437 53.5564C21.6981 52.8108 21.6642 51.6231 22.342 50.8373L22.4437 50.7279L23.8579 49.3137C24.6389 48.5327 25.9052 48.5327 26.6863 49.3137ZM53.5564 22.4437C54.3019 23.1892 54.3358 24.3769 53.658 25.1627L53.5564 25.2721L52.1421 26.6863C51.3611 27.4673 50.0948 27.4673 49.3137 26.6863C48.5682 25.9407 48.5343 24.753 49.212 23.9673L49.3137 23.8579L50.7279 22.4437C51.509 21.6626 52.7753 21.6626 53.5564 22.4437ZM38 24C30.268 24 24 30.268 24 38C24 45.732 30.268 52 38 52C45.732 52 52 45.732 52 38C52 30.268 45.732 24 38 24Z" fill="url(#paint0_linear_5132_5042)"/>
</g>
<defs>
<filter id="filter0_i_5132_5042" x="16" y="16" width="44" height="46" filterUnits="userSpaceOnUse" color-interpolation-filters="sRGB">
<feFlood flood-opacity="0" result="BackgroundImageFix"/>
<feBlend mode="normal" in="SourceGraphic" in2="BackgroundImageFix" result="shape"/>
<feColorMatrix in="SourceAlpha" type="matrix" values="0 0 0 0 0 0 0 0 0 0 0 0 0 0 0 0 0 0 127 0" result="hardAlpha"/>
<feOffset dy="2"/>
<feGaussianBlur stdDeviation="4"/>
<feComposite in2="hardAlpha" operator="arithmetic" k2="-1" k3="1"/>
<feColorMatrix type="matrix" values="0 0 0 0 1 0 0 0 0 1 0 0 0 0 1 0 0 0 1 0"/>
<feBlend mode="overlay" in2="shape" result="effect1_innerShadow_5132_5042"/>
</filter>
<linearGradient id="paint0_linear_5132_5042" x1="38" y1="16" x2="38" y2="60" gradientUnits="userSpaceOnUse">
<stop stop-color="#FFD358"/>
<stop offset="1" stop-color="#FA6C21"/>
</linearGradient>
</defs>
</svg>
