<svg width="76" height="76" viewBox="0 0 76 76" fill="none" xmlns="http://www.w3.org/2000/svg">
<g filter="url(#filter0_i_5132_5088)">
<path fill-rule="evenodd" clip-rule="evenodd" d="M38.7158 15.6125C45.8955 15.6125 51.7158 21.4328 51.7158 28.6125C51.7158 35.7923 45.8955 41.6125 38.7158 41.6125C31.5361 41.6125 25.7158 35.7923 25.7158 28.6125C25.7158 21.4328 31.5361 15.6125 38.7158 15.6125ZM57.7158 26.6125C58.8204 26.6125 59.7158 27.508 59.7158 28.6125C59.7158 29.7171 58.8204 30.6125 57.7158 30.6125H55.7158C54.6113 30.6125 53.7158 29.7171 53.7158 28.6125C53.7158 27.508 54.6113 26.6125 55.7158 26.6125H57.7158ZM21.7158 26.6125C22.8204 26.6125 23.7158 27.508 23.7158 28.6125C23.7158 29.7171 22.8204 30.6125 21.7158 30.6125H19.7158C18.6113 30.6125 17.7158 29.7171 17.7158 28.6125C17.7158 27.508 18.6113 26.6125 19.7158 26.6125H21.7158ZM26.695 13.7633L28.1092 15.1775C28.8903 15.9586 28.8903 17.2249 28.1092 18.0059C27.3282 18.787 26.0618 18.787 25.2808 18.0059L23.8666 16.5917C23.0855 15.8107 23.0855 14.5444 23.8666 13.7633C24.6476 12.9823 25.914 12.9823 26.695 13.7633ZM53.5651 13.7633C54.3461 14.5444 54.3461 15.8107 53.5651 16.5917L52.1508 18.0059C51.3698 18.787 50.1035 18.787 49.3224 18.0059C48.5414 17.2249 48.5414 15.9586 49.3224 15.1775L50.7366 13.7633C51.5177 12.9823 52.784 12.9823 53.5651 13.7633ZM38.7158 7.61255C39.8204 7.61255 40.7158 8.50798 40.7158 9.61255V11.6125C40.7158 12.7171 39.8204 13.6125 38.7158 13.6125C37.6112 13.6125 36.7158 12.7171 36.7158 11.6125V9.61255C36.7158 8.50798 37.6112 7.61255 38.7158 7.61255Z" fill="url(#paint0_linear_5132_5088)"/>
</g>
<g filter="url(#filter1_i_5132_5088)">
<path fill-rule="evenodd" clip-rule="evenodd" d="M27.4158 29.6125C31.1618 29.6125 34.4771 31.7529 36.0875 34.9601L36.1738 35.1385L36.4252 35.1208L36.7658 35.1125C40.6042 35.1125 43.7158 38.2242 43.7158 42.0625C43.7158 45.9009 40.6042 49.0126 36.7658 49.0126H26.8658C26.7154 49.0126 26.5688 48.9959 26.4279 48.9644L26.4138 48.9595L26.1871 48.9353C21.4756 48.3398 17.8522 44.3805 17.7196 39.5849L17.7158 39.3125C17.7158 33.9554 22.0587 29.6125 27.4158 29.6125Z" fill="url(#paint1_linear_5132_5088)"/>
</g>
<path fill-rule="evenodd" clip-rule="evenodd" d="M51.813 38C56.2313 38 59.813 41.5817 59.813 46C59.813 50.4183 56.2313 54 51.813 54H21.813C20.7084 54 19.813 53.1046 19.813 52C19.813 50.8954 20.7084 50 21.813 50H51.813C54.0221 50 55.813 48.2092 55.813 46C55.813 43.7909 54.0221 42 51.813 42C50.456 42 49.2172 42.6788 48.4788 43.789C47.8671 44.7088 46.6256 44.9584 45.7059 44.3467C44.7862 43.735 44.5365 42.4936 45.1482 41.5738C46.6205 39.3602 49.1027 38 51.813 38ZM57.813 58C58.9176 58 59.813 58.8954 59.813 60C59.813 61.1046 58.9176 62 57.813 62H21.813C20.7084 62 19.813 61.1046 19.813 60C19.813 58.8954 20.7084 58 21.813 58H57.813Z" fill="url(#paint2_linear_5132_5088)"/>
<defs>
<filter id="filter0_i_5132_5088" x="17.7158" y="7.61255" width="42" height="36" filterUnits="userSpaceOnUse" color-interpolation-filters="sRGB">
<feFlood flood-opacity="0" result="BackgroundImageFix"/>
<feBlend mode="normal" in="SourceGraphic" in2="BackgroundImageFix" result="shape"/>
<feColorMatrix in="SourceAlpha" type="matrix" values="0 0 0 0 0 0 0 0 0 0 0 0 0 0 0 0 0 0 127 0" result="hardAlpha"/>
<feOffset dy="2"/>
<feGaussianBlur stdDeviation="4"/>
<feComposite in2="hardAlpha" operator="arithmetic" k2="-1" k3="1"/>
<feColorMatrix type="matrix" values="0 0 0 0 1 0 0 0 0 1 0 0 0 0 1 0 0 0 1 0"/>
<feBlend mode="overlay" in2="shape" result="effect1_innerShadow_5132_5088"/>
</filter>
<filter id="filter1_i_5132_5088" x="15.7158" y="29.6125" width="28" height="23.4" filterUnits="userSpaceOnUse" color-interpolation-filters="sRGB">
<feFlood flood-opacity="0" result="BackgroundImageFix"/>
<feBlend mode="normal" in="SourceGraphic" in2="BackgroundImageFix" result="shape"/>
<feColorMatrix in="SourceAlpha" type="matrix" values="0 0 0 0 0 0 0 0 0 0 0 0 0 0 0 0 0 0 127 0" result="hardAlpha"/>
<feOffset dx="-2" dy="4"/>
<feGaussianBlur stdDeviation="2"/>
<feComposite in2="hardAlpha" operator="arithmetic" k2="-1" k3="1"/>
<feColorMatrix type="matrix" values="0 0 0 0 1 0 0 0 0 1 0 0 0 0 1 0 0 0 1 0"/>
<feBlend mode="normal" in2="shape" result="effect1_innerShadow_5132_5088"/>
</filter>
<linearGradient id="paint0_linear_5132_5088" x1="38.7158" y1="7.61255" x2="38.7158" y2="44.0476" gradientUnits="userSpaceOnUse">
<stop stop-color="#FFD358"/>
<stop offset="1" stop-color="#FA6C21"/>
</linearGradient>
<linearGradient id="paint1_linear_5132_5088" x1="19.5373" y1="29.6125" x2="44.4576" y2="48.0076" gradientUnits="userSpaceOnUse">
<stop stop-color="white"/>
<stop offset="1" stop-color="#B4E6FB"/>
</linearGradient>
<linearGradient id="paint2_linear_5132_5088" x1="19.813" y1="38" x2="19.813" y2="62" gradientUnits="userSpaceOnUse">
<stop stop-color="#4CAFFF"/>
<stop offset="1" stop-color="#8FD5FF"/>
</linearGradient>
</defs>
</svg>
