<svg width="76" height="76" viewBox="0 0 76 76" fill="none" xmlns="http://www.w3.org/2000/svg">
<g filter="url(#filter0_i_5132_5091)">
<path fill-rule="evenodd" clip-rule="evenodd" d="M38.4809 7.64961C40.2848 7.28517 41.5818 9.34492 40.4737 10.8143C38.9847 12.7885 38.1678 15.1865 38.1678 17.7139C38.1678 24.0507 43.3047 29.1876 49.6414 29.1876C52.1685 29.1876 54.5665 28.3708 56.5406 26.8826C58.0099 25.7749 60.0692 27.0719 59.7049 28.8756C58.0217 37.2095 50.668 43.2929 42.0625 43.2929C32.1214 43.2929 24.0625 35.234 24.0625 25.2929C24.0625 16.6871 30.146 9.33348 38.4809 7.64961Z" fill="url(#paint0_linear_5132_5091)"/>
</g>
<g filter="url(#filter1_i_5132_5091)">
<path fill-rule="evenodd" clip-rule="evenodd" d="M27.7625 29.61C31.5084 29.61 34.8238 31.7503 36.4342 34.9575L36.5205 35.136L36.7719 35.1182L37.1125 35.11C40.9509 35.11 44.0625 38.2216 44.0625 42.06C44.0625 45.8984 40.9509 49.01 37.1125 49.01H27.2125C27.0621 49.01 26.9155 48.9934 26.7745 48.9619L26.7605 48.957L26.5338 48.9328C21.8223 48.3372 18.1988 44.378 18.0663 39.5823L18.0625 39.31C18.0625 33.9528 22.4053 29.61 27.7625 29.61Z" fill="url(#paint1_linear_5132_5091)"/>
</g>
<path fill-rule="evenodd" clip-rule="evenodd" d="M52.1597 38C56.578 38 60.1597 41.5817 60.1597 46C60.1597 50.4183 56.578 54 52.1597 54H22.1597C21.0551 54 20.1597 53.1046 20.1597 52C20.1597 50.8954 21.0551 50 22.1597 50H52.1597C54.3688 50 56.1597 48.2092 56.1597 46C56.1597 43.7909 54.3688 42 52.1597 42C50.8026 42 49.5639 42.6788 48.8255 43.789C48.2138 44.7088 46.9723 44.9584 46.0526 44.3467C45.1329 43.735 44.8832 42.4936 45.4949 41.5738C46.9672 39.3602 49.4494 38 52.1597 38ZM58.1597 58C59.2642 58 60.1597 58.8954 60.1597 60C60.1597 61.1046 59.2642 62 58.1597 62H22.1597C21.0551 62 20.1597 61.1046 20.1597 60C20.1597 58.8954 21.0551 58 22.1597 58H58.1597Z" fill="url(#paint2_linear_5132_5091)"/>
<defs>
<filter id="filter0_i_5132_5091" x="24.0625" y="7.60714" width="35.6848" height="37.6857" filterUnits="userSpaceOnUse" color-interpolation-filters="sRGB">
<feFlood flood-opacity="0" result="BackgroundImageFix"/>
<feBlend mode="normal" in="SourceGraphic" in2="BackgroundImageFix" result="shape"/>
<feColorMatrix in="SourceAlpha" type="matrix" values="0 0 0 0 0 0 0 0 0 0 0 0 0 0 0 0 0 0 127 0" result="hardAlpha"/>
<feOffset dy="2"/>
<feGaussianBlur stdDeviation="8"/>
<feComposite in2="hardAlpha" operator="arithmetic" k2="-1" k3="1"/>
<feColorMatrix type="matrix" values="0 0 0 0 1 0 0 0 0 1 0 0 0 0 1 0 0 0 1 0"/>
<feBlend mode="overlay" in2="shape" result="effect1_innerShadow_5132_5091"/>
</filter>
<filter id="filter1_i_5132_5091" x="16.0625" y="29.61" width="28" height="23.4" filterUnits="userSpaceOnUse" color-interpolation-filters="sRGB">
<feFlood flood-opacity="0" result="BackgroundImageFix"/>
<feBlend mode="normal" in="SourceGraphic" in2="BackgroundImageFix" result="shape"/>
<feColorMatrix in="SourceAlpha" type="matrix" values="0 0 0 0 0 0 0 0 0 0 0 0 0 0 0 0 0 0 127 0" result="hardAlpha"/>
<feOffset dx="-2" dy="4"/>
<feGaussianBlur stdDeviation="2"/>
<feComposite in2="hardAlpha" operator="arithmetic" k2="-1" k3="1"/>
<feColorMatrix type="matrix" values="0 0 0 0 1 0 0 0 0 1 0 0 0 0 1 0 0 0 1 0"/>
<feBlend mode="normal" in2="shape" result="effect1_innerShadow_5132_5091"/>
</filter>
<linearGradient id="paint0_linear_5132_5091" x1="41.9049" y1="7.60714" x2="41.9049" y2="43.2929" gradientUnits="userSpaceOnUse">
<stop stop-color="#FFD358"/>
<stop offset="1" stop-color="#FA6C21"/>
</linearGradient>
<linearGradient id="paint1_linear_5132_5091" x1="19.8839" y1="29.61" x2="44.8043" y2="48.005" gradientUnits="userSpaceOnUse">
<stop stop-color="white"/>
<stop offset="1" stop-color="#B4E6FB"/>
</linearGradient>
<linearGradient id="paint2_linear_5132_5091" x1="20.1597" y1="38" x2="20.1597" y2="62" gradientUnits="userSpaceOnUse">
<stop stop-color="#4CAFFF"/>
<stop offset="1" stop-color="#8FD5FF"/>
</linearGradient>
</defs>
</svg>
